# xmcd CD database file
#
# Track frame offsets:
#	150
#	21300
#	41100
#	65850
#	85725
#
# Disc length: 1423 seconds
#
# Revision: 0
# Processed by: cddbd v1.5.1PL2 Copyright (c) Steve Scherf et al.
# Submitted via: CDex 1.51
#
DISCID=41058d05
DTITLE=D - PARADOX
DYEAR=2006
DGENRE=JPop
TTITLE0=Face
TTITLE1=Night-ship "D"
TTITLE2=Angelic blue
TTITLE3=花惑
TTITLE4=Pride
EXTD=YEAR: 2006
EXTT0=
EXTT1=
EXTT2=
EXTT3=
EXTT4=
PLAYORDER=
